<svg width="731" height="250" viewBox="0 0 731 250" fill="none" xmlns="http://www.w3.org/2000/svg">
<path d="M62.5971 152.216H47.0451V179H18.5331V78.2H64.6131C73.7331 78.2 81.6531 79.736 88.3731 82.808C95.0931 85.784 100.277 90.104 103.925 95.768C107.573 101.336 109.397 107.912 109.397 115.496C109.397 122.792 107.669 129.176 104.213 134.648C100.853 140.024 96.0051 144.248 89.6691 147.32L111.413 179H80.8851L62.5971 152.216ZM80.5971 115.496C80.5971 110.792 79.1091 107.144 76.1331 104.552C73.1571 101.96 68.7411 100.664 62.8851 100.664H47.0451V130.184H62.8851C68.7411 130.184 73.1571 128.936 76.1331 126.44C79.1091 123.848 80.5971 120.2 80.5971 115.496ZM214.263 159.416H171.639L163.719 179H134.631L179.127 78.2H207.207L251.847 179H222.183L214.263 159.416ZM205.911 138.392L192.951 106.136L179.991 138.392H205.911ZM310.042 100.232V122.408H354.538V144.44H310.042V179H281.53V78.2H360.586V100.232H310.042ZM459.119 159.416H416.495L408.575 179H379.487L423.983 78.2H452.063L496.703 179H467.039L459.119 159.416ZM450.767 138.392L437.807 106.136L424.847 138.392H450.767ZM607.314 156.968V179H526.386V78.2H605.442V100.232H554.61V117.224H599.394V138.536H554.61V156.968H607.314ZM644.736 78.2H673.248V156.392H721.344V179H644.736V78.2Z" fill="#22272E"/>
<path d="M62.5971 152.216L63.423 151.652L63.1252 151.216H62.5971V152.216ZM47.0451 152.216V151.216H46.0451V152.216H47.0451ZM47.0451 179V180H48.0451V179H47.0451ZM18.5331 179H17.5331V180H18.5331V179ZM18.5331 78.2V77.2H17.5331V78.2H18.5331ZM88.3731 82.808L87.9573 83.7175L87.9682 83.7223L88.3731 82.808ZM103.925 95.768L103.084 96.3095L103.089 96.316L103.925 95.768ZM104.213 134.648L103.368 134.114L103.365 134.118L104.213 134.648ZM89.6691 147.32L89.2329 146.42L88.1868 146.927L88.8446 147.886L89.6691 147.32ZM111.413 179V180H113.312L112.238 178.434L111.413 179ZM80.8851 179L80.0593 179.564L80.3571 180H80.8851V179ZM47.0451 100.664V99.664H46.0451V100.664H47.0451ZM47.0451 130.184H46.0451V131.184H47.0451V130.184ZM76.1331 126.44L76.7757 127.206L76.7829 127.2L76.7899 127.194L76.1331 126.44ZM62.5971 151.216H47.0451V153.216H62.5971V151.216ZM46.0451 152.216V179H48.0451V152.216H46.0451ZM47.0451 178H18.5331V180H47.0451V178ZM19.5331 179V78.2H17.5331V179H19.5331ZM18.5331 79.2H64.6131V77.2H18.5331V79.2ZM64.6131 79.2C73.6224 79.2 81.3947 80.7174 87.9574 83.7175L88.7889 81.8985C81.9116 78.7546 73.8438 77.2 64.6131 77.2V79.2ZM87.9682 83.7223C94.5266 86.6268 99.5517 90.8245 103.084 96.3095L104.766 95.2265C101.003 89.3835 95.6597 84.9412 88.7781 81.8936L87.9682 83.7223ZM103.089 96.316C106.616 101.699 108.397 108.079 108.397 115.496H110.397C110.397 107.745 108.531 100.973 104.762 95.22L103.089 96.316ZM108.397 115.496C108.397 122.628 106.71 128.822 103.368 134.114L105.059 135.182C108.628 129.53 110.397 122.956 110.397 115.496H108.397ZM103.365 134.118C100.116 139.317 95.4189 143.421 89.2329 146.42L90.1054 148.22C96.5914 145.075 101.591 140.731 105.061 135.178L103.365 134.118ZM88.8446 147.886L110.589 179.566L112.238 178.434L90.4936 146.754L88.8446 147.886ZM111.413 178H80.8851V180H111.413V178ZM81.711 178.436L63.423 151.652L61.7713 152.78L80.0593 179.564L81.711 178.436ZM81.5971 115.496C81.5971 110.564 80.026 106.616 76.7899 103.798L75.4763 105.306C78.1922 107.672 79.5971 111.02 79.5971 115.496H81.5971ZM76.7899 103.798C73.5613 100.986 68.8689 99.664 62.8851 99.664V101.664C68.6133 101.664 72.7529 102.934 75.4763 105.306L76.7899 103.798ZM62.8851 99.664H47.0451V101.664H62.8851V99.664ZM46.0451 100.664V130.184H48.0451V100.664H46.0451ZM47.0451 131.184H62.8851V129.184H47.0451V131.184ZM62.8851 131.184C68.8614 131.184 73.5479 129.913 76.7757 127.206L75.4905 125.674C72.7664 127.959 68.6209 129.184 62.8851 129.184V131.184ZM76.7899 127.194C80.026 124.376 81.5971 120.428 81.5971 115.496H79.5971C79.5971 119.972 78.1922 123.32 75.4763 125.686L76.7899 127.194ZM214.263 159.416L215.19 159.041L214.937 158.416H214.263V159.416ZM171.639 159.416V158.416H170.965L170.712 159.041L171.639 159.416ZM163.719 179V180H164.393L164.646 179.375L163.719 179ZM134.631 179L133.716 178.596L133.096 180H134.631V179ZM179.127 78.2V77.2H178.475L178.212 77.7962L179.127 78.2ZM207.207 78.2L208.121 77.7951L207.858 77.2H207.207V78.2ZM251.847 179V180H253.383L252.761 178.595L251.847 179ZM222.183 179L221.256 179.375L221.509 180H222.183V179ZM205.911 138.392V139.392H207.39L206.839 138.019L205.911 138.392ZM192.951 106.136L193.879 105.763L192.951 103.454L192.023 105.763L192.951 106.136ZM179.991 138.392L179.063 138.019L178.511 139.392H179.991V138.392ZM214.263 158.416H171.639V160.416H214.263V158.416ZM170.712 159.041L162.792 178.625L164.646 179.375L172.566 159.791L170.712 159.041ZM163.719 178H134.631V180H163.719V178ZM135.546 179.404L180.042 78.6038L178.212 77.7962L133.716 178.596L135.546 179.404ZM179.127 79.2H207.207V77.2H179.127V79.2ZM206.293 78.6049L250.933 179.405L252.761 178.595L208.121 77.7951L206.293 78.6049ZM251.847 178H222.183V180H251.847V178ZM223.11 178.625L215.19 159.041L213.336 159.791L221.256 179.375L223.11 178.625ZM206.839 138.019L193.879 105.763L192.023 106.509L204.983 138.765L206.839 138.019ZM192.023 105.763L179.063 138.019L180.919 138.765L193.879 106.509L192.023 105.763ZM179.991 139.392H205.911V137.392H179.991V139.392ZM310.042 100.232V99.232H309.042V100.232H310.042ZM310.042 122.408H309.042V123.408H310.042V122.408ZM354.538 122.408H355.538V121.408H354.538V122.408ZM354.538 144.44V145.44H355.538V144.44H354.538ZM310.042 144.44V143.44H309.042V144.44H310.042ZM310.042 179V180H311.042V179H310.042ZM281.53 179H280.53V180H281.53V179ZM281.53 78.2V77.2H280.53V78.2H281.53ZM360.586 78.2H361.586V77.2H360.586V78.2ZM360.586 100.232V101.232H361.586V100.232H360.586ZM309.042 100.232V122.408H311.042V100.232H309.042ZM310.042 123.408H354.538V121.408H310.042V123.408ZM353.538 122.408V144.44H355.538V122.408H353.538ZM354.538 143.44H310.042V145.44H354.538V143.44ZM309.042 144.44V179H311.042V144.44H309.042ZM310.042 178H281.53V180H310.042V178ZM282.53 179V78.2H280.53V179H282.53ZM281.53 79.2H360.586V77.2H281.53V79.2ZM359.586 78.2V100.232H361.586V78.2H359.586ZM360.586 99.232H310.042V101.232H360.586V99.232ZM459.119 159.416L460.046 159.041L459.793 158.416H459.119V159.416ZM416.495 159.416V158.416H415.821L415.568 159.041L416.495 159.416ZM408.575 179V180H409.249L409.502 179.375L408.575 179ZM379.487 179L378.572 178.596L377.953 180H379.487V179ZM423.983 78.2V77.2H423.331L423.068 77.7962L423.983 78.2ZM452.063 78.2L452.977 77.7951L452.714 77.2H452.063V78.2ZM496.703 179V180H498.24L497.617 178.595L496.703 179ZM467.039 179L466.112 179.375L466.365 180H467.039V179ZM450.767 138.392V139.392H452.247L451.695 138.019L450.767 138.392ZM437.807 106.136L438.735 105.763L437.807 103.454L436.879 105.763L437.807 106.136ZM424.847 138.392L423.919 138.019L423.368 139.392H424.847V138.392ZM459.119 158.416H416.495V160.416H459.119V158.416ZM415.568 159.041L407.648 178.625L409.502 179.375L417.422 159.791L415.568 159.041ZM408.575 178H379.487V180H408.575V178ZM380.402 179.404L424.898 78.6038L423.068 77.7962L378.572 178.596L380.402 179.404ZM423.983 79.2H452.063V77.2H423.983V79.2ZM451.149 78.6049L495.789 179.405L497.617 178.595L452.977 77.7951L451.149 78.6049ZM496.703 178H467.039V180H496.703V178ZM467.966 178.625L460.046 159.041L458.192 159.791L466.112 179.375L467.966 178.625ZM451.695 138.019L438.735 105.763L436.879 106.509L449.839 138.765L451.695 138.019ZM436.879 105.763L423.919 138.019L425.775 138.765L438.735 106.509L436.879 105.763ZM424.847 139.392H450.767V137.392H424.847V139.392ZM607.314 156.968H608.314V155.968H607.314V156.968ZM607.314 179V180H608.314V179H607.314ZM526.386 179H525.386V180H526.386V179ZM526.386 78.2V77.2H525.386V78.2H526.386ZM605.442 78.2H606.442V77.2H605.442V78.2ZM605.442 100.232V101.232H606.442V100.232H605.442ZM554.61 100.232V99.232H553.61V100.232H554.61ZM554.61 117.224H553.61V118.224H554.61V117.224ZM599.394 117.224H600.394V116.224H599.394V117.224ZM599.394 138.536V139.536H600.394V138.536H599.394ZM554.61 138.536V137.536H553.61V138.536H554.61ZM554.61 156.968H553.61V157.968H554.61V156.968ZM606.314 156.968V179H608.314V156.968H606.314ZM607.314 178H526.386V180H607.314V178ZM527.386 179V78.2H525.386V179H527.386ZM526.386 79.2H605.442V77.2H526.386V79.2ZM604.442 78.2V100.232H606.442V78.2H604.442ZM605.442 99.232H554.61V101.232H605.442V99.232ZM553.61 100.232V117.224H555.61V100.232H553.61ZM554.61 118.224H599.394V116.224H554.61V118.224ZM598.394 117.224V138.536H600.394V117.224H598.394ZM599.394 137.536H554.61V139.536H599.394V137.536ZM553.61 138.536V156.968H555.61V138.536H553.61ZM554.61 157.968H607.314V155.968H554.61V157.968ZM644.736 78.2V77.2H643.736V78.2H644.736ZM673.248 78.2H674.248V77.2H673.248V78.2ZM673.248 156.392H672.248V157.392H673.248V156.392ZM721.344 156.392H722.344V155.392H721.344V156.392ZM721.344 179V180H722.344V179H721.344ZM644.736 179H643.736V180H644.736V179ZM644.736 79.2H673.248V77.2H644.736V79.2ZM672.248 78.2V156.392H674.248V78.2H672.248ZM673.248 157.392H721.344V155.392H673.248V157.392ZM720.344 156.392V179H722.344V156.392H720.344ZM721.344 178H644.736V180H721.344V178ZM645.736 179V78.2H643.736V179H645.736Z" fill="#539BF5"/>
</svg>
