<svg width="731" height="400" viewBox="0 0 731 400" fill="none" xmlns="http://www.w3.org/2000/svg">
<path d="M62.5971 220.216H47.0451V247H18.5331V146.2H64.6131C73.7331 146.2 81.6531 147.736 88.3731 150.808C95.0931 153.784 100.277 158.104 103.925 163.768C107.573 169.336 109.397 175.912 109.397 183.496C109.397 190.792 107.669 197.176 104.213 202.648C100.853 208.024 96.0051 212.248 89.6691 215.32L111.413 247H80.8851L62.5971 220.216ZM80.5971 183.496C80.5971 178.792 79.1091 175.144 76.1331 172.552C73.1571 169.96 68.7411 168.664 62.8851 168.664H47.0451V198.184H62.8851C68.7411 198.184 73.1571 196.936 76.1331 194.44C79.1091 191.848 80.5971 188.2 80.5971 183.496ZM214.263 227.416H171.639L163.719 247H134.631L179.127 146.2H207.207L251.847 247H222.183L214.263 227.416ZM205.911 206.392L192.951 174.136L179.991 206.392H205.911ZM310.042 168.232V190.408H354.538V212.44H310.042V247H281.53V146.2H360.586V168.232H310.042ZM459.119 227.416H416.495L408.575 247H379.487L423.983 146.2H452.063L496.703 247H467.039L459.119 227.416ZM450.767 206.392L437.807 174.136L424.847 206.392H450.767ZM607.314 224.968V247H526.386V146.2H605.442V168.232H554.61V185.224H599.394V206.536H554.61V224.968H607.314ZM644.736 146.2H673.248V224.392H721.344V247H644.736V146.2Z" fill="#22272E"/>
<path d="M62.5971 220.216L63.423 219.652L63.1252 219.216H62.5971V220.216ZM47.0451 220.216V219.216H46.0451V220.216H47.0451ZM47.0451 247V248H48.0451V247H47.0451ZM18.5331 247H17.5331V248H18.5331V247ZM18.5331 146.2V145.2H17.5331V146.2H18.5331ZM88.3731 150.808L87.9573 151.718L87.9682 151.722L88.3731 150.808ZM103.925 163.768L103.084 164.309L103.089 164.316L103.925 163.768ZM104.213 202.648L103.368 202.114L103.365 202.118L104.213 202.648ZM89.6691 215.32L89.2329 214.42L88.1868 214.927L88.8446 215.886L89.6691 215.32ZM111.413 247V248H113.312L112.238 246.434L111.413 247ZM80.8851 247L80.0593 247.564L80.3571 248H80.8851V247ZM47.0451 168.664V167.664H46.0451V168.664H47.0451ZM47.0451 198.184H46.0451V199.184H47.0451V198.184ZM76.1331 194.44L76.7757 195.206L76.7829 195.2L76.7899 195.194L76.1331 194.44ZM62.5971 219.216H47.0451V221.216H62.5971V219.216ZM46.0451 220.216V247H48.0451V220.216H46.0451ZM47.0451 246H18.5331V248H47.0451V246ZM19.5331 247V146.2H17.5331V247H19.5331ZM18.5331 147.2H64.6131V145.2H18.5331V147.2ZM64.6131 147.2C73.6224 147.2 81.3947 148.717 87.9574 151.717L88.7889 149.899C81.9116 146.755 73.8438 145.2 64.6131 145.2V147.2ZM87.9682 151.722C94.5266 154.627 99.5517 158.825 103.084 164.309L104.766 163.227C101.003 157.383 95.6597 152.941 88.7781 149.894L87.9682 151.722ZM103.089 164.316C106.616 169.699 108.397 176.079 108.397 183.496H110.397C110.397 175.745 108.531 168.973 104.762 163.22L103.089 164.316ZM108.397 183.496C108.397 190.628 106.71 196.822 103.368 202.114L105.059 203.182C108.628 197.53 110.397 190.956 110.397 183.496H108.397ZM103.365 202.118C100.116 207.317 95.4189 211.421 89.2329 214.42L90.1054 216.22C96.5914 213.075 101.591 208.731 105.061 203.178L103.365 202.118ZM88.8446 215.886L110.589 247.566L112.238 246.434L90.4936 214.754L88.8446 215.886ZM111.413 246H80.8851V248H111.413V246ZM81.711 246.436L63.423 219.652L61.7713 220.78L80.0593 247.564L81.711 246.436ZM81.5971 183.496C81.5971 178.564 80.026 174.616 76.7899 171.798L75.4763 173.306C78.1922 175.672 79.5971 179.02 79.5971 183.496H81.5971ZM76.7899 171.798C73.5613 168.986 68.8689 167.664 62.8851 167.664V169.664C68.6133 169.664 72.7529 170.934 75.4763 173.306L76.7899 171.798ZM62.8851 167.664H47.0451V169.664H62.8851V167.664ZM46.0451 168.664V198.184H48.0451V168.664H46.0451ZM47.0451 199.184H62.8851V197.184H47.0451V199.184ZM62.8851 199.184C68.8614 199.184 73.5479 197.913 76.7757 195.206L75.4905 193.674C72.7664 195.959 68.6209 197.184 62.8851 197.184V199.184ZM76.7899 195.194C80.026 192.376 81.5971 188.428 81.5971 183.496H79.5971C79.5971 187.972 78.1922 191.32 75.4763 193.686L76.7899 195.194ZM214.263 227.416L215.19 227.041L214.937 226.416H214.263V227.416ZM171.639 227.416V226.416H170.965L170.712 227.041L171.639 227.416ZM163.719 247V248H164.393L164.646 247.375L163.719 247ZM134.631 247L133.716 246.596L133.096 248H134.631V247ZM179.127 146.2V145.2H178.475L178.212 145.796L179.127 146.2ZM207.207 146.2L208.121 145.795L207.858 145.2H207.207V146.2ZM251.847 247V248H253.383L252.761 246.595L251.847 247ZM222.183 247L221.256 247.375L221.509 248H222.183V247ZM205.911 206.392V207.392H207.39L206.839 206.019L205.911 206.392ZM192.951 174.136L193.879 173.763L192.951 171.454L192.023 173.763L192.951 174.136ZM179.991 206.392L179.063 206.019L178.511 207.392H179.991V206.392ZM214.263 226.416H171.639V228.416H214.263V226.416ZM170.712 227.041L162.792 246.625L164.646 247.375L172.566 227.791L170.712 227.041ZM163.719 246H134.631V248H163.719V246ZM135.546 247.404L180.042 146.604L178.212 145.796L133.716 246.596L135.546 247.404ZM179.127 147.2H207.207V145.2H179.127V147.2ZM206.293 146.605L250.933 247.405L252.761 246.595L208.121 145.795L206.293 146.605ZM251.847 246H222.183V248H251.847V246ZM223.11 246.625L215.19 227.041L213.336 227.791L221.256 247.375L223.11 246.625ZM206.839 206.019L193.879 173.763L192.023 174.509L204.983 206.765L206.839 206.019ZM192.023 173.763L179.063 206.019L180.919 206.765L193.879 174.509L192.023 173.763ZM179.991 207.392H205.911V205.392H179.991V207.392ZM310.042 168.232V167.232H309.042V168.232H310.042ZM310.042 190.408H309.042V191.408H310.042V190.408ZM354.538 190.408H355.538V189.408H354.538V190.408ZM354.538 212.44V213.44H355.538V212.44H354.538ZM310.042 212.44V211.44H309.042V212.44H310.042ZM310.042 247V248H311.042V247H310.042ZM281.53 247H280.53V248H281.53V247ZM281.53 146.2V145.2H280.53V146.2H281.53ZM360.586 146.2H361.586V145.2H360.586V146.2ZM360.586 168.232V169.232H361.586V168.232H360.586ZM309.042 168.232V190.408H311.042V168.232H309.042ZM310.042 191.408H354.538V189.408H310.042V191.408ZM353.538 190.408V212.44H355.538V190.408H353.538ZM354.538 211.44H310.042V213.44H354.538V211.44ZM309.042 212.44V247H311.042V212.44H309.042ZM310.042 246H281.53V248H310.042V246ZM282.53 247V146.2H280.53V247H282.53ZM281.53 147.2H360.586V145.2H281.53V147.2ZM359.586 146.2V168.232H361.586V146.2H359.586ZM360.586 167.232H310.042V169.232H360.586V167.232ZM459.119 227.416L460.046 227.041L459.793 226.416H459.119V227.416ZM416.495 227.416V226.416H415.821L415.568 227.041L416.495 227.416ZM408.575 247V248H409.249L409.502 247.375L408.575 247ZM379.487 247L378.572 246.596L377.953 248H379.487V247ZM423.983 146.2V145.2H423.331L423.068 145.796L423.983 146.2ZM452.063 146.2L452.977 145.795L452.714 145.2H452.063V146.2ZM496.703 247V248H498.24L497.617 246.595L496.703 247ZM467.039 247L466.112 247.375L466.365 248H467.039V247ZM450.767 206.392V207.392H452.247L451.695 206.019L450.767 206.392ZM437.807 174.136L438.735 173.763L437.807 171.454L436.879 173.763L437.807 174.136ZM424.847 206.392L423.919 206.019L423.368 207.392H424.847V206.392ZM459.119 226.416H416.495V228.416H459.119V226.416ZM415.568 227.041L407.648 246.625L409.502 247.375L417.422 227.791L415.568 227.041ZM408.575 246H379.487V248H408.575V246ZM380.402 247.404L424.898 146.604L423.068 145.796L378.572 246.596L380.402 247.404ZM423.983 147.2H452.063V145.2H423.983V147.2ZM451.149 146.605L495.789 247.405L497.617 246.595L452.977 145.795L451.149 146.605ZM496.703 246H467.039V248H496.703V246ZM467.966 246.625L460.046 227.041L458.192 227.791L466.112 247.375L467.966 246.625ZM451.695 206.019L438.735 173.763L436.879 174.509L449.839 206.765L451.695 206.019ZM436.879 173.763L423.919 206.019L425.775 206.765L438.735 174.509L436.879 173.763ZM424.847 207.392H450.767V205.392H424.847V207.392ZM607.314 224.968H608.314V223.968H607.314V224.968ZM607.314 247V248H608.314V247H607.314ZM526.386 247H525.386V248H526.386V247ZM526.386 146.2V145.2H525.386V146.2H526.386ZM605.442 146.2H606.442V145.2H605.442V146.2ZM605.442 168.232V169.232H606.442V168.232H605.442ZM554.61 168.232V167.232H553.61V168.232H554.61ZM554.61 185.224H553.61V186.224H554.61V185.224ZM599.394 185.224H600.394V184.224H599.394V185.224ZM599.394 206.536V207.536H600.394V206.536H599.394ZM554.61 206.536V205.536H553.61V206.536H554.61ZM554.61 224.968H553.61V225.968H554.61V224.968ZM606.314 224.968V247H608.314V224.968H606.314ZM607.314 246H526.386V248H607.314V246ZM527.386 247V146.2H525.386V247H527.386ZM526.386 147.2H605.442V145.2H526.386V147.2ZM604.442 146.2V168.232H606.442V146.2H604.442ZM605.442 167.232H554.61V169.232H605.442V167.232ZM553.61 168.232V185.224H555.61V168.232H553.61ZM554.61 186.224H599.394V184.224H554.61V186.224ZM598.394 185.224V206.536H600.394V185.224H598.394ZM599.394 205.536H554.61V207.536H599.394V205.536ZM553.61 206.536V224.968H555.61V206.536H553.61ZM554.61 225.968H607.314V223.968H554.61V225.968ZM644.736 146.2V145.2H643.736V146.2H644.736ZM673.248 146.2H674.248V145.2H673.248V146.2ZM673.248 224.392H672.248V225.392H673.248V224.392ZM721.344 224.392H722.344V223.392H721.344V224.392ZM721.344 247V248H722.344V247H721.344ZM644.736 247H643.736V248H644.736V247ZM644.736 147.2H673.248V145.2H644.736V147.2ZM672.248 146.2V224.392H674.248V146.2H672.248ZM673.248 225.392H721.344V223.392H673.248V225.392ZM720.344 224.392V247H722.344V224.392H720.344ZM721.344 246H644.736V248H721.344V246ZM645.736 247V146.2H643.736V247H645.736Z" fill="#539BF5"/>
</svg>
