<svg width="706" height="103" viewBox="0 0 706 103" fill="none" xmlns="http://www.w3.org/2000/svg">
<path d="M45.5971 75.216H30.0451V102H1.53313V1.19999H47.6131C56.7331 1.19999 64.6531 2.73599 71.3731 5.80799C78.0931 8.784 83.2771 13.104 86.9251 18.768C90.5731 24.336 92.3971 30.912 92.3971 38.496C92.3971 45.792 90.6691 52.176 87.2131 57.648C83.8531 63.024 79.0051 67.248 72.6691 70.32L94.4131 102H63.8851L45.5971 75.216ZM63.5971 38.496C63.5971 33.792 62.1091 30.144 59.1331 27.552C56.1571 24.96 51.7411 23.664 45.8851 23.664H30.0451V53.184H45.8851C51.7411 53.184 56.1571 51.936 59.1331 49.44C62.1091 46.848 63.5971 43.2 63.5971 38.496ZM197.263 82.416H154.639L146.719 102H117.631L162.127 1.19999H190.207L234.847 102H205.183L197.263 82.416ZM188.911 61.392L175.951 29.136L162.991 61.392H188.911ZM293.042 23.232V45.408H337.538V67.44H293.042V102H264.53V1.19999H343.586V23.232H293.042ZM442.119 82.416H399.495L391.575 102H362.487L406.983 1.19999H435.063L479.703 102H450.039L442.119 82.416ZM433.767 61.392L420.807 29.136L407.847 61.392H433.767ZM590.314 79.968V102H509.386V1.19999H588.442V23.232H537.61V40.224H582.394V61.536H537.61V79.968H590.314ZM627.736 1.19999H656.248V79.392H704.344V102H627.736V1.19999Z" fill="#22272E"/>
<path d="M45.5971 75.216L46.423 74.6521L46.1252 74.216H45.5971V75.216ZM30.0451 75.216V74.216H29.0451V75.216H30.0451ZM30.0451 102V103H31.0451V102H30.0451ZM1.53313 102H0.533125V103H1.53313V102ZM1.53313 1.19999V0.199993H0.533125V1.19999H1.53313ZM71.3731 5.80799L70.9573 6.71753L70.9682 6.72234L71.3731 5.80799ZM86.9251 18.768L86.0844 19.3095L86.0887 19.316L86.9251 18.768ZM87.2131 57.648L86.3676 57.114L86.3651 57.118L87.2131 57.648ZM72.6691 70.32L72.2329 69.4202L71.1868 69.9274L71.8446 70.8859L72.6691 70.32ZM94.4131 102V103H96.3124L95.2376 101.434L94.4131 102ZM63.8851 102L63.0593 102.564L63.3571 103H63.8851V102ZM30.0451 23.664V22.664H29.0451V23.664H30.0451ZM30.0451 53.184H29.0451V54.184H30.0451V53.184ZM59.1331 49.44L59.7757 50.2062L59.7829 50.2002L59.7899 50.1941L59.1331 49.44ZM45.5971 74.216H30.0451V76.216H45.5971V74.216ZM29.0451 75.216V102H31.0451V75.216H29.0451ZM30.0451 101H1.53313V103H30.0451V101ZM2.53313 102V1.19999H0.533125V102H2.53313ZM1.53313 2.19999H47.6131V0.199993H1.53313V2.19999ZM47.6131 2.19999C56.6224 2.19999 64.3947 3.71739 70.9574 6.71747L71.7889 4.89852C64.9116 1.7546 56.8438 0.199993 47.6131 0.199993V2.19999ZM70.9682 6.72234C77.5266 9.62676 82.5517 13.8245 86.0844 19.3095L87.7658 18.2265C84.0025 12.3835 78.6597 7.94123 71.7781 4.89364L70.9682 6.72234ZM86.0887 19.316C89.6156 24.6993 91.3971 31.0788 91.3971 38.496H93.3971C93.3971 30.7452 91.5306 23.9727 87.7616 18.22L86.0887 19.316ZM91.3971 38.496C91.3971 45.6277 89.7103 51.8215 86.3676 57.114L88.0586 58.182C91.628 52.5305 93.3971 45.9563 93.3971 38.496H91.3971ZM86.3651 57.118C83.1157 62.3171 78.4189 66.4209 72.2329 69.4202L73.1054 71.2198C79.5914 68.0751 84.5906 63.7308 88.0611 58.178L86.3651 57.118ZM71.8446 70.8859L93.5887 102.566L95.2376 101.434L73.4936 69.7541L71.8446 70.8859ZM94.4131 101H63.8851V103H94.4131V101ZM64.711 101.436L46.423 74.6521L44.7713 75.7799L63.0593 102.564L64.711 101.436ZM64.5971 38.496C64.5971 33.5637 63.026 29.6165 59.7899 26.7979L58.4763 28.3061C61.1922 30.6715 62.5971 34.0203 62.5971 38.496H64.5971ZM59.7899 26.7979C56.5613 23.9859 51.8689 22.664 45.8851 22.664V24.664C51.6133 24.664 55.7529 25.9341 58.4763 28.3061L59.7899 26.7979ZM45.8851 22.664H30.0451V24.664H45.8851V22.664ZM29.0451 23.664V53.184H31.0451V23.664H29.0451ZM30.0451 54.184H45.8851V52.184H30.0451V54.184ZM45.8851 54.184C51.8614 54.184 56.5479 52.9134 59.7757 50.2062L58.4905 48.6738C55.7664 50.9586 51.6209 52.184 45.8851 52.184V54.184ZM59.7899 50.1941C63.026 47.3755 64.5971 43.4283 64.5971 38.496H62.5971C62.5971 42.9717 61.1922 46.3205 58.4763 48.6859L59.7899 50.1941ZM197.263 82.416L198.19 82.0411L197.937 81.416H197.263V82.416ZM154.639 82.416V81.416H153.965L153.712 82.0411L154.639 82.416ZM146.719 102V103H147.393L147.646 102.375L146.719 102ZM117.631 102L116.716 101.596L116.096 103H117.631V102ZM162.127 1.19999V0.199993H161.475L161.212 0.79616L162.127 1.19999ZM190.207 1.19999L191.121 0.795067L190.858 0.199993H190.207V1.19999ZM234.847 102V103H236.383L235.761 101.595L234.847 102ZM205.183 102L204.256 102.375L204.509 103H205.183V102ZM188.911 61.392V62.392H190.39L189.839 61.0192L188.911 61.392ZM175.951 29.136L176.879 28.7632L175.951 26.4537L175.023 28.7632L175.951 29.136ZM162.991 61.392L162.063 61.0192L161.511 62.392H162.991V61.392ZM197.263 81.416H154.639V83.416H197.263V81.416ZM153.712 82.0411L145.792 101.625L147.646 102.375L155.566 82.7909L153.712 82.0411ZM146.719 101H117.631V103H146.719V101ZM118.546 102.404L163.042 1.60383L161.212 0.79616L116.716 101.596L118.546 102.404ZM162.127 2.19999H190.207V0.199993H162.127V2.19999ZM189.293 1.60492L233.933 102.405L235.761 101.595L191.121 0.795067L189.293 1.60492ZM234.847 101H205.183V103H234.847V101ZM206.11 101.625L198.19 82.0411L196.336 82.7909L204.256 102.375L206.11 101.625ZM189.839 61.0192L176.879 28.7632L175.023 29.5088L187.983 61.7648L189.839 61.0192ZM175.023 28.7632L162.063 61.0192L163.919 61.7648L176.879 29.5088L175.023 28.7632ZM162.991 62.392H188.911V60.392H162.991V62.392ZM293.042 23.232V22.232H292.042V23.232H293.042ZM293.042 45.408H292.042V46.408H293.042V45.408ZM337.538 45.408H338.538V44.408H337.538V45.408ZM337.538 67.44V68.44H338.538V67.44H337.538ZM293.042 67.44V66.44H292.042V67.44H293.042ZM293.042 102V103H294.042V102H293.042ZM264.53 102H263.53V103H264.53V102ZM264.53 1.19999V0.199993H263.53V1.19999H264.53ZM343.586 1.19999H344.586V0.199993H343.586V1.19999ZM343.586 23.232V24.232H344.586V23.232H343.586ZM292.042 23.232V45.408H294.042V23.232H292.042ZM293.042 46.408H337.538V44.408H293.042V46.408ZM336.538 45.408V67.44H338.538V45.408H336.538ZM337.538 66.44H293.042V68.44H337.538V66.44ZM292.042 67.44V102H294.042V67.44H292.042ZM293.042 101H264.53V103H293.042V101ZM265.53 102V1.19999H263.53V102H265.53ZM264.53 2.19999H343.586V0.199993H264.53V2.19999ZM342.586 1.19999V23.232H344.586V1.19999H342.586ZM343.586 22.232H293.042V24.232H343.586V22.232ZM442.119 82.416L443.046 82.0411L442.793 81.416H442.119V82.416ZM399.495 82.416V81.416H398.821L398.568 82.0411L399.495 82.416ZM391.575 102V103H392.249L392.502 102.375L391.575 102ZM362.487 102L361.572 101.596L360.953 103H362.487V102ZM406.983 1.19999V0.199993H406.331L406.068 0.79616L406.983 1.19999ZM435.063 1.19999L435.977 0.795067L435.714 0.199993H435.063V1.19999ZM479.703 102V103H481.24L480.617 101.595L479.703 102ZM450.039 102L449.112 102.375L449.365 103H450.039V102ZM433.767 61.392V62.392H435.247L434.695 61.0192L433.767 61.392ZM420.807 29.136L421.735 28.7632L420.807 26.4537L419.879 28.7632L420.807 29.136ZM407.847 61.392L406.919 61.0192L406.368 62.392H407.847V61.392ZM442.119 81.416H399.495V83.416H442.119V81.416ZM398.568 82.0411L390.648 101.625L392.502 102.375L400.422 82.7909L398.568 82.0411ZM391.575 101H362.487V103H391.575V101ZM363.402 102.404L407.898 1.60383L406.068 0.79616L361.572 101.596L363.402 102.404ZM406.983 2.19999H435.063V0.199993H406.983V2.19999ZM434.149 1.60492L478.789 102.405L480.617 101.595L435.977 0.795067L434.149 1.60492ZM479.703 101H450.039V103H479.703V101ZM450.966 101.625L443.046 82.0411L441.192 82.7909L449.112 102.375L450.966 101.625ZM434.695 61.0192L421.735 28.7632L419.879 29.5088L432.839 61.7648L434.695 61.0192ZM419.879 28.7632L406.919 61.0192L408.775 61.7648L421.735 29.5088L419.879 28.7632ZM407.847 62.392H433.767V60.392H407.847V62.392ZM590.314 79.968H591.314V78.968H590.314V79.968ZM590.314 102V103H591.314V102H590.314ZM509.386 102H508.386V103H509.386V102ZM509.386 1.19999V0.199993H508.386V1.19999H509.386ZM588.442 1.19999H589.442V0.199993H588.442V1.19999ZM588.442 23.232V24.232H589.442V23.232H588.442ZM537.61 23.232V22.232H536.61V23.232H537.61ZM537.61 40.224H536.61V41.224H537.61V40.224ZM582.394 40.224H583.394V39.224H582.394V40.224ZM582.394 61.536V62.536H583.394V61.536H582.394ZM537.61 61.536V60.536H536.61V61.536H537.61ZM537.61 79.968H536.61V80.968H537.61V79.968ZM589.314 79.968V102H591.314V79.968H589.314ZM590.314 101H509.386V103H590.314V101ZM510.386 102V1.19999H508.386V102H510.386ZM509.386 2.19999H588.442V0.199993H509.386V2.19999ZM587.442 1.19999V23.232H589.442V1.19999H587.442ZM588.442 22.232H537.61V24.232H588.442V22.232ZM536.61 23.232V40.224H538.61V23.232H536.61ZM537.61 41.224H582.394V39.224H537.61V41.224ZM581.394 40.224V61.536H583.394V40.224H581.394ZM582.394 60.536H537.61V62.536H582.394V60.536ZM536.61 61.536V79.968H538.61V61.536H536.61ZM537.61 80.968H590.314V78.968H537.61V80.968ZM627.736 1.19999V0.199993H626.736V1.19999H627.736ZM656.248 1.19999H657.248V0.199993H656.248V1.19999ZM656.248 79.392H655.248V80.392H656.248V79.392ZM704.344 79.392H705.344V78.392H704.344V79.392ZM704.344 102V103H705.344V102H704.344ZM627.736 102H626.736V103H627.736V102ZM627.736 2.19999H656.248V0.199993H627.736V2.19999ZM655.248 1.19999V79.392H657.248V1.19999H655.248ZM656.248 80.392H704.344V78.392H656.248V80.392ZM703.344 79.392V102H705.344V79.392H703.344ZM704.344 101H627.736V103H704.344V101ZM628.736 102V1.19999H626.736V102H628.736Z" fill="#539BF5"/>
</svg>
