<svg width="710" height="107" viewBox="0 0 710 107" fill="none" xmlns="http://www.w3.org/2000/svg">
<path d="M47.5971 77.216H32.0451V104H3.53313V3.19999H49.6131C58.7331 3.19999 66.6531 4.73599 73.3731 7.80799C80.0931 10.784 85.2771 15.104 88.9251 20.768C92.5731 26.336 94.3971 32.912 94.3971 40.496C94.3971 47.792 92.6691 54.176 89.2131 59.648C85.8531 65.024 81.0051 69.248 74.6691 72.32L96.4131 104H65.8851L47.5971 77.216ZM65.5971 40.496C65.5971 35.792 64.1091 32.144 61.1331 29.552C58.1571 26.96 53.7411 25.664 47.8851 25.664H32.0451V55.184H47.8851C53.7411 55.184 58.1571 53.936 61.1331 51.44C64.1091 48.848 65.5971 45.2 65.5971 40.496ZM199.263 84.416H156.639L148.719 104H119.631L164.127 3.19999H192.207L236.847 104H207.183L199.263 84.416ZM190.911 63.392L177.951 31.136L164.991 63.392H190.911ZM295.042 25.232V47.408H339.538V69.44H295.042V104H266.53V3.19999H345.586V25.232H295.042ZM444.119 84.416H401.495L393.575 104H364.487L408.983 3.19999H437.063L481.703 104H452.039L444.119 84.416ZM435.767 63.392L422.807 31.136L409.847 63.392H435.767ZM592.314 81.968V104H511.386V3.19999H590.442V25.232H539.61V42.224H584.394V63.536H539.61V81.968H592.314ZM629.736 3.19999H658.248V81.392H706.344V104H629.736V3.19999Z" fill="#22272E"/>
<path d="M47.5971 77.216L50.0747 75.5243L49.1814 74.216H47.5971V77.216ZM32.0451 77.216V74.216H29.0451V77.216H32.0451ZM32.0451 104V107H35.0451V104H32.0451ZM3.53313 104H0.533125V107H3.53313V104ZM3.53313 3.19999V0.199993H0.533125V3.19999H3.53313ZM73.3731 7.80799L72.1258 10.5364L72.1421 10.5438L72.1583 10.551L73.3731 7.80799ZM88.9251 20.768L86.403 22.3924L86.4093 22.4023L86.4157 22.4121L88.9251 20.768ZM89.2131 59.648L86.6767 58.046L86.6729 58.052L86.6691 58.058L89.2131 59.648ZM74.6691 72.32L73.3603 69.6206L70.222 71.1421L72.1957 74.0177L74.6691 72.32ZM96.4131 104V107H102.111L98.8866 102.302L96.4131 104ZM65.8851 104L63.4076 105.692L64.3009 107H65.8851V104ZM32.0451 25.664V22.664H29.0451V25.664H32.0451ZM32.0451 55.184H29.0451V58.184H32.0451V55.184ZM61.1331 51.44L63.061 53.7386L63.0824 53.7206L63.1035 53.7022L61.1331 51.44ZM47.5971 74.216H32.0451V80.216H47.5971V74.216ZM29.0451 77.216V104H35.0451V77.216H29.0451ZM32.0451 101H3.53313V107H32.0451V101ZM6.53313 104V3.19999H0.533125V104H6.53313ZM3.53313 6.19999H49.6131V0.199993H3.53313V6.19999ZM49.6131 6.19999C58.401 6.19999 65.8778 7.68018 72.1258 10.5364L74.6204 5.07957C67.4284 1.7918 59.0652 0.199993 49.6131 0.199993V6.19999ZM72.1583 10.551C78.3934 13.3123 83.101 17.2656 86.403 22.3924L91.4473 19.1436C87.4533 12.9424 81.7928 8.25569 74.5879 5.06495L72.1583 10.551ZM86.4157 22.4121C89.7006 27.4259 91.3971 33.4124 91.3971 40.496H97.3971C97.3971 32.4116 95.4456 25.2461 91.4345 19.1239L86.4157 22.4121ZM91.3971 40.496C91.3971 47.2992 89.7925 53.1126 86.6767 58.046L91.7496 61.25C95.5458 55.2394 97.3971 48.2848 97.3971 40.496H91.3971ZM86.6691 58.058C83.6407 62.9034 79.2465 66.7667 73.3603 69.6206L75.9779 75.0194C82.7638 71.7293 88.0655 67.1446 91.7571 61.238L86.6691 58.058ZM72.1957 74.0177L93.9397 105.698L98.8866 102.302L77.1426 70.6223L72.1957 74.0177ZM96.4131 101H65.8851V107H96.4131V101ZM68.3627 102.308L50.0747 75.5243L45.1196 78.9077L63.4076 105.692L68.3627 102.308ZM68.5971 40.496C68.5971 35.1072 66.8598 30.5614 63.1035 27.2898L59.1628 31.8142C61.3584 33.7266 62.5971 36.4768 62.5971 40.496H68.5971ZM63.1035 27.2898C59.3698 24.0378 54.1245 22.664 47.8851 22.664V28.664C53.3577 28.664 56.9445 29.8822 59.1628 31.8142L63.1035 27.2898ZM47.8851 22.664H32.0451V28.664H47.8851V22.664ZM29.0451 25.664V55.184H35.0451V25.664H29.0451ZM32.0451 58.184H47.8851V52.184H32.0451V58.184ZM47.8851 58.184C54.1019 58.184 59.3294 56.8683 63.061 53.7386L59.2053 49.1414C56.9849 51.0037 53.3803 52.184 47.8851 52.184V58.184ZM63.1035 53.7022C66.8598 50.4306 68.5971 45.8848 68.5971 40.496H62.5971C62.5971 44.5152 61.3584 47.2654 59.1628 49.1778L63.1035 53.7022ZM199.263 84.416L202.044 83.2913L201.286 81.416H199.263V84.416ZM156.639 84.416V81.416H154.616L153.858 83.2913L156.639 84.416ZM148.719 104V107H150.742L151.5 105.125L148.719 104ZM119.631 104L116.886 102.789L115.027 107H119.631V104ZM164.127 3.19999V0.199993H162.172L161.382 1.98849L164.127 3.19999ZM192.207 3.19999L194.95 1.98521L194.159 0.199993H192.207V3.19999ZM236.847 104V107H241.456L239.59 102.785L236.847 104ZM207.183 104L204.402 105.125L205.16 107H207.183V104ZM190.911 63.392V66.392H195.349L193.695 62.2735L190.911 63.392ZM177.951 31.136L180.735 30.0175L177.951 23.0892L175.167 30.0175L177.951 31.136ZM164.991 63.392L162.207 62.2735L160.552 66.392H164.991V63.392ZM199.263 81.416H156.639V87.416H199.263V81.416ZM153.858 83.2913L145.938 102.875L151.5 105.125L159.42 85.5407L153.858 83.2913ZM148.719 101H119.631V107H148.719V101ZM122.375 105.211L166.871 4.41149L161.382 1.98849L116.886 102.789L122.375 105.211ZM164.127 6.19999H192.207V0.199993H164.127V6.19999ZM189.464 4.41477L234.104 105.215L239.59 102.785L194.95 1.98521L189.464 4.41477ZM236.847 101H207.183V107H236.847V101ZM209.964 102.875L202.044 83.2913L196.482 85.5407L204.402 105.125L209.964 102.875ZM193.695 62.2735L180.735 30.0175L175.167 32.2544L188.127 64.5105L193.695 62.2735ZM175.167 30.0175L162.207 62.2735L167.775 64.5105L180.735 32.2544L175.167 30.0175ZM164.991 66.392H190.911V60.392H164.991V66.392ZM295.042 25.232V22.232H292.042V25.232H295.042ZM295.042 47.408H292.042V50.408H295.042V47.408ZM339.538 47.408H342.538V44.408H339.538V47.408ZM339.538 69.44V72.44H342.538V69.44H339.538ZM295.042 69.44V66.44H292.042V69.44H295.042ZM295.042 104V107H298.042V104H295.042ZM266.53 104H263.53V107H266.53V104ZM266.53 3.19999V0.199993H263.53V3.19999H266.53ZM345.586 3.19999H348.586V0.199993H345.586V3.19999ZM345.586 25.232V28.232H348.586V25.232H345.586ZM292.042 25.232V47.408H298.042V25.232H292.042ZM295.042 50.408H339.538V44.408H295.042V50.408ZM336.538 47.408V69.44H342.538V47.408H336.538ZM339.538 66.44H295.042V72.44H339.538V66.44ZM292.042 69.44V104H298.042V69.44H292.042ZM295.042 101H266.53V107H295.042V101ZM269.53 104V3.19999H263.53V104H269.53ZM266.53 6.19999H345.586V0.199993H266.53V6.19999ZM342.586 3.19999V25.232H348.586V3.19999H342.586ZM345.586 22.232H295.042V28.232H345.586V22.232ZM444.119 84.416L446.9 83.2913L446.142 81.416H444.119V84.416ZM401.495 84.416V81.416H399.472L398.714 83.2913L401.495 84.416ZM393.575 104V107H395.598L396.356 105.125L393.575 104ZM364.487 104L361.743 102.789L359.884 107H364.487V104ZM408.983 3.19999V0.199993H407.028L406.239 1.98849L408.983 3.19999ZM437.063 3.19999L439.806 1.98521L439.016 0.199993H437.063V3.19999ZM481.703 104V107H486.313L484.446 102.785L481.703 104ZM452.039 104L449.258 105.125L450.016 107H452.039V104ZM435.767 63.392V66.392H440.206L438.551 62.2735L435.767 63.392ZM422.807 31.136L425.591 30.0175L422.807 23.0892L420.023 30.0175L422.807 31.136ZM409.847 63.392L407.063 62.2735L405.409 66.392H409.847V63.392ZM444.119 81.416H401.495V87.416H444.119V81.416ZM398.714 83.2913L390.794 102.875L396.356 105.125L404.276 85.5407L398.714 83.2913ZM393.575 101H364.487V107H393.575V101ZM367.232 105.211L411.728 4.41149L406.239 1.98849L361.743 102.789L367.232 105.211ZM408.983 6.19999H437.063V0.199993H408.983V6.19999ZM434.32 4.41477L478.96 105.215L484.446 102.785L439.806 1.98521L434.32 4.41477ZM481.703 101H452.039V107H481.703V101ZM454.82 102.875L446.9 83.2913L441.338 85.5407L449.258 105.125L454.82 102.875ZM438.551 62.2735L425.591 30.0175L420.023 32.2544L432.983 64.5105L438.551 62.2735ZM420.023 30.0175L407.063 62.2735L412.631 64.5105L425.591 32.2544L420.023 30.0175ZM409.847 66.392H435.767V60.392H409.847V66.392ZM592.314 81.968H595.314V78.968H592.314V81.968ZM592.314 104V107H595.314V104H592.314ZM511.386 104H508.386V107H511.386V104ZM511.386 3.19999V0.199993H508.386V3.19999H511.386ZM590.442 3.19999H593.442V0.199993H590.442V3.19999ZM590.442 25.232V28.232H593.442V25.232H590.442ZM539.61 25.232V22.232H536.61V25.232H539.61ZM539.61 42.224H536.61V45.224H539.61V42.224ZM584.394 42.224H587.394V39.224H584.394V42.224ZM584.394 63.536V66.536H587.394V63.536H584.394ZM539.61 63.536V60.536H536.61V63.536H539.61ZM539.61 81.968H536.61V84.968H539.61V81.968ZM589.314 81.968V104H595.314V81.968H589.314ZM592.314 101H511.386V107H592.314V101ZM514.386 104V3.19999H508.386V104H514.386ZM511.386 6.19999H590.442V0.199993H511.386V6.19999ZM587.442 3.19999V25.232H593.442V3.19999H587.442ZM590.442 22.232H539.61V28.232H590.442V22.232ZM536.61 25.232V42.224H542.61V25.232H536.61ZM539.61 45.224H584.394V39.224H539.61V45.224ZM581.394 42.224V63.536H587.394V42.224H581.394ZM584.394 60.536H539.61V66.536H584.394V60.536ZM536.61 63.536V81.968H542.61V63.536H536.61ZM539.61 84.968H592.314V78.968H539.61V84.968ZM629.736 3.19999V0.199993H626.736V3.19999H629.736ZM658.248 3.19999H661.248V0.199993H658.248V3.19999ZM658.248 81.392H655.248V84.392H658.248V81.392ZM706.344 81.392H709.344V78.392H706.344V81.392ZM706.344 104V107H709.344V104H706.344ZM629.736 104H626.736V107H629.736V104ZM629.736 6.19999H658.248V0.199993H629.736V6.19999ZM655.248 3.19999V81.392H661.248V3.19999H655.248ZM658.248 84.392H706.344V78.392H658.248V84.392ZM703.344 81.392V104H709.344V81.392H703.344ZM706.344 101H629.736V107H706.344V101ZM632.736 104V3.19999H626.736V104H632.736Z" fill="#539BF5"/>
</svg>
